<!DOCTYPE svg PUBLIC "-//W3C//DTD SVG 1.1//EN" "http://www.w3.org/Graphics/SVG/1.1/DTD/svg11.dtd">
<!-- Uploaded to: SVG Repo, www.svgrepo.com, Transformed by: SVG Repo Mixer Tools -->
<svg fill="#000000" version="1.1" id="Capa_1" xmlns="http://www.w3.org/2000/svg" xmlns:xlink="http://www.w3.org/1999/xlink" width="800px" height="800px" viewBox="0 0 583.54 583.54" xml:space="preserve">
<g id="SVGRepo_bgCarrier" stroke-width="0"/>
<g id="SVGRepo_tracerCarrier" stroke-linecap="round" stroke-linejoin="round"/>
<g id="SVGRepo_iconCarrier"> <g> <path d="M480.98,197.264c28.105,0,50.974-22.869,50.974-50.979c0-28.105-22.868-50.974-50.974-50.974s-50.974,22.869-50.974,50.974 S452.875,197.264,480.98,197.264z M480.98,104.87c22.831,0,41.415,18.582,41.415,41.416c0,22.838-18.584,41.42-41.415,41.42 c-22.841,0-41.416-18.582-41.416-41.42S458.139,104.87,480.98,104.87z M402.349,121.423c-0.028-0.31,0.009-0.63,0.112-0.94 c0.4-1.258,1.75-1.942,3.005-1.536l13.063,4.245c1.256,0.411,1.941,1.759,1.531,3.01c-0.327,1.013-1.261,1.654-2.269,1.654 c0,0,0,0-0.01,0c-0.247,0-0.499-0.037-0.737-0.114l-13.059-4.245C403.049,123.192,402.428,122.35,402.349,121.423z M431.798,82.502 c-0.774-1.064-0.542-2.56,0.532-3.334c1.063-0.775,2.566-0.546,3.337,0.525l8.073,11.112c0.775,1.069,0.542,2.56-0.531,3.334 c-0.42,0.306-0.91,0.46-1.4,0.46c-0.732,0-1.466-0.341-1.928-0.985l-0.009-0.004L431.798,82.502z M518.428,93.92 c-1.063-0.779-1.293-2.275-0.522-3.339l8.069-11.112c0.774-1.076,2.277-1.3,3.342-0.527c1.06,0.775,1.293,2.271,0.518,3.337 l-8.064,11.112c-0.471,0.644-1.194,0.985-1.932,0.985C519.343,94.371,518.858,94.226,518.428,93.92z M541.773,125.841 c-0.41-1.258,0.285-2.606,1.531-3.013l13.059-4.251c1.26-0.413,2.604,0.287,3.015,1.533c0.401,1.258-0.285,2.604-1.54,3.01 l-13.059,4.254c-0.243,0.082-0.495,0.114-0.732,0.114C543.034,127.493,542.1,126.849,541.773,125.841z M559.495,171.103 c-0.322,1.008-1.27,1.654-2.278,1.654c-0.242,0-0.499-0.04-0.737-0.114l-13.054-4.245c-1.265-0.406-1.941-1.754-1.54-3.01 c0.411-1.253,1.773-1.946,3.015-1.536l13.059,4.245C559.219,168.498,559.895,169.847,559.495,171.103z M522.074,197.976 l8.074,11.107c0.774,1.064,0.541,2.56-0.532,3.334c-0.42,0.306-0.91,0.46-1.4,0.46c-0.737,0-1.466-0.341-1.932-0.985l-8.07-11.107 c-0.774-1.069-0.541-2.56,0.523-3.335C519.8,196.676,521.299,196.899,522.074,197.976z M482.1,209.965 c0.858,0.364,1.456,1.216,1.456,2.206v13.728c0,1.321-1.064,2.39-2.39,2.39c-1.316,0-2.39-1.069-2.39-2.39V212.17 c0-1.321,1.064-2.39,2.39-2.39C481.494,209.781,481.811,209.841,482.1,209.965z M443.522,197.67 c0.532,0.387,0.858,0.957,0.952,1.563c0.093,0.602-0.042,1.246-0.435,1.778l-8.064,11.105c-0.467,0.646-1.194,0.985-1.932,0.985 c-0.495,0-0.98-0.143-1.41-0.453c-0.527-0.392-0.858-0.957-0.952-1.563c-0.046-0.301-0.037-0.611,0.042-0.912 c0.065-0.301,0.196-0.598,0.393-0.866l8.064-11.112C440.964,197.121,442.454,196.89,443.522,197.67z M420.186,165.745 c0.402,1.258-0.284,2.604-1.54,3.012v0.005l-13.058,4.242c-0.243,0.082-0.495,0.115-0.733,0.115c-1.008,0-1.95-0.64-2.282-1.648 c-0.098-0.314-0.126-0.634-0.098-0.947c0.074-0.922,0.695-1.762,1.643-2.067l13.059-4.25 C418.432,163.801,419.786,164.494,420.186,165.745z M478.394,79.424v-0.009v-13.73c0-1.318,1.064-2.39,2.39-2.39 c1.326,0,2.39,1.071,2.39,2.39v13.74c0,1.321-1.063,2.39-2.39,2.39C479.463,81.814,478.394,80.75,478.394,79.424z M582.853,377.146 c-1.307-2.217-4.126-3.028-6.408-1.857c-12.643,6.46-26.761,9.036-41.042,10.492c-8.079-6.73-16.792-13.349-26.154-19.957 c0.84-5.428,2.081-10.608,3.93-15.387c0.929-2.427-0.196-5.157-2.576-6.208c-2.39-1.059-5.172-0.051-6.329,2.282 c-1.764,3.524-4.732,6.898-8.4,10.202c-1.647-1.082-3.211-2.155-4.9-3.248l-14.991-10.398L420.34,213.16 c-1.125-2.625-3.71-4.327-6.58-4.327L82.015,172.799c-0.038,0-0.065,0.009-0.096,0.009c-0.53,0.009-1.073,0.077-1.596,0.206 c-0.138,0.035-0.28,0.096-0.411,0.135c-0.383,0.114-0.745,0.256-1.108,0.438c-0.177,0.086-0.333,0.187-0.501,0.287 c-0.147,0.096-0.306,0.159-0.46,0.264l-12.263,8.76c-2.39,1.701-3.339,4.644-2.705,7.416c-7.813-0.63-17.166-1.09-26.754-0.329 c-21.179,1.657-32.817,7.799-35.58,18.775c-8.422,33.402,84.131,93.396,85.071,94.002c10.606,6.818,21.432,13.488,32.495,20.013 l50.376,120.327c1.146,2.585,3.713,4.246,6.543,4.246h19.387h2.91h121.633l7.001,23.662l-52.626,35.088 c-1.86,1.241-2.613,3.598-1.82,5.684c0.716,1.867,2.508,3.071,4.461,3.071c0.227,0,0.46-0.014,0.684-0.047l104.918-14.99 l17.296-3.557c0.673-0.644,1.4-1.251,2.045-1.918c0.783-0.826,1.614-1.647,2.482-2.497c1.325-1.307,2.754-2.697,4.145-4.331 l1.862-2.081c0.368-0.416,0.761-0.896,1.134-1.316l-25.146,5.171v-8.904l27.274,1.288c0.579-0.677,1.148-1.288,1.728-1.998 c-1.862-2.608-3.528-5.18-5.073-7.729l-23.933-1.129v-23.457h13.833c-0.383-1.867-0.598-3.715-0.803-5.559 c2.44,0.714,4.858,1.461,7.309,2.166c0.616,12.829,6.776,26.541,18.79,41.616c-1.293,1.689-2.577,3.322-3.897,4.862 c-2.613,3.328-5.33,6.235-7.785,9.008c-2.417,2.838-4.9,5.045-7,7.238c-2.077,2.176-4.056,4-5.741,5.424 c-3.304,2.94-5.133,4.69-5.133,4.69l9.959,3.439l21.021-24.871c1.563-1.549,3.183-3.136,4.835-4.76 c0.477-0.505,0.943-1.074,1.41-1.605c9.119,1.601,17.445,2.454,24.717,2.454c5.208,0,9.922-0.447,14.281-1.25l0.009,0.004 c7.458,2.764,14.188,4.01,20.302,4.01c19.005,0,31.993-12.098,42.303-28.236c22.994-0.242,36.459-6.305,41.023-18.58 c4.023-10.804-0.401-23.088-13.292-37.443c5.866-11.397,12.125-20.974,19.892-26.28 C583.535,382.206,584.169,379.359,582.853,377.146z M521.672,386.967c-1.195,0.084-2.39,0.168-3.575,0.256 c-3.505,0.248-6.991,0.509-10.454,0.789c0.037-3.827,0.168-7.607,0.42-11.317C512.791,380.105,517.323,383.531,521.672,386.967z M467.66,360.065c2.94-1.723,5.788-3.463,8.569-5.189l9.441,6.543c0.812,0.522,1.554,1.036,2.356,1.559 c-7.028,4.984-15.429,9.866-24.091,14.893c-24.806,14.384-52.92,30.682-57.652,56.262c-6.497-1.891-12.975-3.799-19.401-5.759 c-13.554-4.145-26.92-8.462-40.109-12.919l-5.964-14.113l6.646-8.429l56.938,2.077l7.668,5.003 c2.978-3.523,6.272-6.865,9.861-10.002l-9.343-6.487l-10.604-25.108l5.671-7.192l57.456,2.89L467.66,360.065z M369.689,432.998 h-15.504l-2.465-5.839C357.675,429.138,363.659,431.079,369.689,432.998z M154.658,332.455l-18.901-44.853l60.326,3.906 l11.078,7.232l13.506,31.895l-5.668,6.086l-57.888-2.912C156.277,333.36,155.475,332.894,154.658,332.455z M382.803,345.168 l-58.712-2.954l-11.724-8.148l-11.901-28.147l5.741-7.28l59.122,3.836l10.79,7.038l12.452,29.468L382.803,345.168z M396.497,357.731l10.939,25.894l-6.034,6.478l-59.197-2.156l-10.007-6.944l-11.294-26.733l5.638-7.149l58.193,2.931 L396.497,357.731z M307.486,334.808l-5.848,6.281l-66.252-3.342l-9.238-6.422l-13.243-31.288l5.582-7.084l64.646,4.191 l11.651,7.607L307.486,334.808z M362.147,297.466l-59.3-3.836l-10.723-7.456l-12.307-29.113l4.917-6.237l61.199,4.788l10.249,6.681 l12.078,28.607L362.147,297.466z M287.053,286.475l-5.386,5.787l-65.899-4.272l-11.294-7.853l-12.664-29.911l4.966-6.284 l68.221,5.337l8.756,5.712L287.053,286.475z M199.476,280.597l-5.572,5.979l-60.227-3.895l-19.039-45.164l59.907,4.684 l11.985,7.829L199.476,280.597z M216.083,341.556l12.732,8.316l10.069,23.793c-24.756-10.902-48.694-22.435-71.763-34.573 L216.083,341.556z M245.264,376.475l-11.203-26.453l5.731-7.271l65.089,3.28l10.146,6.623l12.358,29.221l-4.993,5.357 l-56.589-2.059C258.89,382.318,252.045,379.415,245.264,376.475z M323.298,392.039l11.574,7.557l5.824,13.768 c-21.1-7.248-41.721-14.897-61.855-22.938L323.298,392.039z M463.011,349.205l-59.024-2.973l-10.127-7.048l-12.2-28.861 l5.115-6.469l58.432,3.781L463.011,349.205z M443.102,302.707l-58.124-3.762l-11.5-7.988l-11.499-27.232l5.096-6.459l58.535,4.583 L443.102,302.707z M409.051,223.166l14.435,33.722l-57.484-4.497l-12.479-8.669l-11.724-27.744L409.051,223.166z M336.366,215.396 l12.2,28.87l-5.872,6.294l-57.706-4.511l-13.917-9.668l-12.377-29.291L336.366,215.396z M253.25,206.512l13.133,31.064 l-6.093,6.543l-65.626-5.138l-10.802-7.498l-14.365-33.927L253.25,206.512z M164.062,196.972l14.347,33.869l-5.962,6.403 l-59.897-4.693l-18.136-43.03L164.062,196.972z M90.779,294.717c-27.508-17.7-86.084-63.33-80.971-83.632 c2.007-7.98,15.823-10.701,27.06-11.579c8.314-0.66,17.392-0.445,29.41,0.677l0.096-0.98l45.478,108.638 C104.746,303.519,97.691,299.16,90.779,294.717z M160.545,346.424c24.334,12.867,49.62,25.066,75.821,36.566l-0.999,1.073 l-59.878-2.18L160.545,346.424z M197.035,432.998l-19.49-46.256l59.739,2.175l11.145,7.267l15.588,36.81h-66.982V432.998z M269.192,432.998l-14.953-35.335l4.135-5.25c28.133,11.7,57.251,22.631,87.302,32.749l3.314,7.836H269.192z M296.152,502.351 l35.836-23.886l31.652,14.248L296.152,502.351z M375.831,487.729l-19.41-8.746l19.41,0.924V487.729z M375.831,470.339 l-40.669-1.932l-6.24-21.072h46.904v23.004H375.831z M439.583,480.289c1.694-2.146,3.36-4.35,5.041-6.59 c2.8-4.153,5.787-8.308,8.414-12.666c2.67-4.327,5.102-8.784,7.52-13.143c2.398-4.368,4.499-8.812,6.543-13.068 c4.084-8.545,7.443-16.661,10.226-23.671c2.81-6.978,5.003-12.854,6.562-16.979c1.587-4.089,2.427-6.502,2.427-6.502 c0.01,0-6.356,7.967-14.006,21.007c-3.906,6.44-8.204,14.085-12.825,22.192c-2.314,4.036-4.704,8.209-7.141,12.446 c-2.454,4.21-4.938,8.48-7.598,12.63c-2.455,4.284-5.236,8.33-7.85,12.414c-2.236,3.024-4.233,6.137-6.348,9.092 c-12.069-15.752-16.923-29.375-14.691-41.51c3.91-21.188,28.842-35.646,52.962-49.629c10.09-5.849,19.778-11.547,27.792-17.628 c0.766,0.509,1.531,1.031,2.282,1.545c-1.372,12.792-1.036,26.322-0.625,39.623c0.784,25.375,1.507,49.341-10.627,61.857 C478.758,480.868,462.96,483.631,439.583,480.289z M487.622,484.145c2.585-1.615,4.919-3.491,7.014-5.647 c10.272-10.604,13.143-26.121,13.661-43.684c0.196-0.121,0.42-0.183,0.606-0.336l0.089-0.07l33.444-28.217l-34.084,17.65 c-0.056-4.681-0.205-9.46-0.35-14.295c-0.112-3.911-0.225-7.851-0.304-11.766c3.683-0.312,7.365-0.579,11.08-0.845 c14.053-0.989,28.44-2.007,42.283-5.592c-6.795,10.044-12.433,22.557-18.285,35.508 C528.967,457.486,515.833,486.632,487.622,484.145z M565.855,444.045c-2.66,7.159-11.457,11.247-26.368,12.181 c4.396-8.177,8.354-16.895,12.181-25.365c1.783-3.953,3.547-7.827,5.32-11.626C565.258,429.25,568.259,437.586,565.855,444.045z"/> </g> </g>
</svg>